# Blender v2.80 (sub 75) OBJ File: 'untitled.blend'
# www.blender.org
mtllib intersection_fourway.mtl
o Vert.002
v -1.000000 0.000000 1.000000
v -1.000000 0.000000 3.000000
v -1.000000 1.000000 3.500000
v -1.000000 2.000000 3.000000
v -1.000000 2.000000 1.000000
v -1.000000 1.000000 0.500000
v -1.000000 2.200000 0.900000
v -1.000000 2.200000 3.099999
v -1.000000 1.000000 3.700000
v -1.000000 -0.200000 3.099999
v -1.000000 -0.200000 0.900000
v -1.000000 1.000000 0.300000
v -2.000000 2.200000 -0.100000
v -2.000000 2.200000 4.099999
v -2.000000 1.000000 4.700000
v -2.000000 -0.200000 4.099999
v -2.000000 -0.200000 -0.100000
v -2.000000 1.000000 -0.700000
v -2.000000 0.000000 -0.000000
v -2.000000 0.000000 4.000000
v -2.000000 1.000000 4.500000
v -2.000000 2.000000 4.000000
v -2.000000 2.000000 -0.000000
v -2.000000 1.000000 -0.500000
v -6.000000 0.000000 -2.000000
v -4.000000 0.000000 -2.000000
v -3.500000 1.000000 -2.000000
v -4.000000 2.000000 -2.000000
v -6.000000 2.000000 -2.000000
v -6.500000 1.000000 -2.000000
v -6.100000 2.200000 -2.000000
v -3.900001 2.200000 -2.000000
v -3.300000 1.000000 -2.000000
v -3.900001 -0.200000 -2.000000
v -6.100000 -0.200000 -2.000000
v -6.700000 1.000000 -2.000000
v -7.100000 2.200000 -1.000000
v -2.900001 2.200000 -1.000000
v -2.300000 1.000000 -1.000000
v -2.900001 -0.200000 -1.000000
v -7.100000 -0.200000 -1.000000
v -7.700000 1.000000 -1.000000
v -7.000000 0.000000 -1.000000
v -3.000000 0.000000 -1.000000
v -2.500000 1.000000 -1.000000
v -3.000000 2.000000 -1.000000
v -7.000000 2.000000 -1.000000
v -7.500000 1.000000 -1.000000
v -9.000000 0.000000 3.000000
v -9.000000 0.000000 1.000000
v -9.000000 1.000000 0.500000
v -9.000000 2.000000 1.000000
v -9.000000 2.000000 3.000000
v -9.000000 1.000000 3.500000
v -9.000000 2.200000 3.100000
v -9.000000 2.200000 0.900001
v -9.000000 1.000000 0.300000
v -9.000000 -0.200000 0.900001
v -9.000000 -0.200000 3.100000
v -9.000000 1.000000 3.700000
v -8.000000 2.200000 4.100000
v -8.000000 2.200000 -0.099999
v -8.000000 1.000000 -0.700000
v -8.000000 -0.200000 -0.099999
v -8.000000 -0.200000 4.100000
v -8.000000 1.000000 4.700000
v -8.000000 0.000000 4.000000
v -8.000000 0.000000 0.000000
v -8.000000 1.000000 -0.500000
v -8.000000 2.000000 0.000000
v -8.000000 2.000000 4.000000
v -8.000000 1.000000 4.500000
v -4.000000 0.000000 6.000000
v -6.000000 0.000000 6.000000
v -6.499999 1.000000 6.000000
v -6.000000 2.000000 6.000000
v -4.000000 2.000000 6.000000
v -3.500000 1.000000 6.000000
v -3.900000 2.200000 6.000000
v -6.099998 2.200000 6.000000
v -6.699999 1.000000 6.000000
v -6.099998 -0.200000 6.000000
v -3.900000 -0.200000 6.000000
v -3.300000 1.000000 6.000000
v -2.900000 2.200000 5.000000
v -7.099999 2.200000 5.000000
v -7.700000 1.000000 5.000000
v -7.099999 -0.200000 5.000000
v -2.900000 -0.200000 5.000000
v -2.300000 1.000000 5.000000
v -3.000000 0.000000 5.000000
v -7.000000 0.000000 5.000000
v -7.500000 1.000000 5.000000
v -7.000000 2.000000 5.000000
v -3.000000 2.000000 5.000000
v -2.500000 1.000000 5.000000
vn 0.7629 0.6192 -0.1859
vn 0.7037 -0.6805 0.2044
vn 0.7037 -0.6805 -0.2044
vn 0.7629 0.6192 0.1859
vn 0.8826 0.0000 -0.4701
vn 0.5223 0.0000 0.8527
vn 0.7037 0.6805 -0.2044
vn 0.7629 -0.6192 0.1859
vn 0.7037 0.6805 0.2044
vn 0.7629 -0.6192 -0.1859
vn 0.8826 0.0000 0.4701
vn 0.5223 0.0000 -0.8527
vn 0.4082 0.8165 0.4082
vn 0.7071 0.0000 0.7071
vn 0.4082 -0.8165 0.4082
vn 0.4082 -0.8165 -0.4082
vn 0.7071 0.0000 -0.7071
vn 0.4082 0.8165 -0.4082
vn -0.4082 -0.8165 -0.4082
vn -0.4082 -0.8165 0.4082
vn -0.4082 0.8165 -0.4082
vn -0.7071 0.0000 -0.7071
vn -0.7071 0.0000 0.7071
vn -0.4082 0.8165 0.4082
vn -0.1859 0.6192 -0.7629
vn 0.2044 -0.6805 -0.7037
vn -0.2044 -0.6805 -0.7037
vn 0.1859 0.6192 -0.7629
vn -0.4701 0.0000 -0.8826
vn 0.8527 0.0000 -0.5223
vn -0.2044 0.6805 -0.7037
vn 0.1859 -0.6192 -0.7629
vn 0.2044 0.6805 -0.7037
vn -0.1859 -0.6192 -0.7629
vn 0.4701 0.0000 -0.8826
vn -0.8527 0.0000 -0.5223
vn -0.7629 0.6192 0.1859
vn -0.7037 -0.6805 -0.2044
vn -0.7037 -0.6805 0.2044
vn -0.7629 0.6192 -0.1859
vn -0.8826 0.0000 0.4701
vn -0.5223 0.0000 -0.8527
vn -0.7037 0.6805 0.2044
vn -0.7629 -0.6192 -0.1859
vn -0.7037 0.6805 -0.2044
vn -0.7629 -0.6192 0.1859
vn -0.8826 0.0000 -0.4701
vn -0.5223 0.0000 0.8527
vn 0.1859 0.6192 0.7629
vn -0.2044 -0.6805 0.7037
vn 0.2044 -0.6805 0.7037
vn -0.1859 0.6192 0.7629
vn 0.4701 0.0000 0.8826
vn -0.8527 0.0000 0.5223
vn 0.2044 0.6805 0.7037
vn -0.1859 -0.6192 0.7629
vn -0.2044 0.6805 0.7037
vn 0.1859 -0.6192 0.7629
vn -0.4701 0.0000 0.8826
vn 0.8527 0.0000 0.5223
usemtl None
s 1
f 2//1 10//2 11//3 1//4
f 1//4 11//3 12//5 6//6
f 6//6 12//5 7//7 5//8
f 5//8 7//7 8//9 4//10
f 4//10 8//9 9//11 3//12
f 3//12 9//11 10//2 2//1
f 8//9 14//13 15//14 9//11
f 10//2 16//15 17//16 11//3
f 12//5 18//17 13//18 7//7
f 7//7 13//18 14//13 8//9
f 9//11 15//14 16//15 10//2
f 11//3 17//16 18//17 12//5
f 4//10 22//19 23//20 5//8
f 2//1 20//21 21//22 3//12
f 5//8 23//20 24//23 6//6
f 3//12 21//22 22//19 4//10
f 1//4 19//24 20//21 2//1
f 6//6 24//23 19//24 1//4
f 26//25 34//26 35//27 25//28
f 25//28 35//27 36//29 30//30
f 30//30 36//29 31//31 29//32
f 29//32 31//31 32//33 28//34
f 28//34 32//33 33//35 27//36
f 27//36 33//35 34//26 26//25
f 32//33 38//18 39//17 33//35
f 34//26 40//16 41//19 35//27
f 36//29 42//22 37//21 31//31
f 31//31 37//21 38//18 32//33
f 33//35 39//17 40//16 34//26
f 35//27 41//19 42//22 36//29
f 28//34 46//20 47//15 29//32
f 26//25 44//24 45//23 27//36
f 29//32 47//15 48//14 30//30
f 27//36 45//23 46//20 28//34
f 25//28 43//13 44//24 26//25
f 30//30 48//14 43//13 25//28
f 18//17 17//16 40//16 39//17
f 13//18 18//17 39//17 38//18
f 24//23 23//20 46//20 45//23
f 19//24 24//23 45//23 44//24
f 23//20 22//19 47//15 46//20
f 14//13 13//18 38//18 37//21
f 17//16 16//15 41//19 40//16
f 20//21 19//24 44//24 43//13
f 50//37 58//38 59//39 49//40
f 49//40 59//39 60//41 54//42
f 54//42 60//41 55//43 53//44
f 53//44 55//43 56//45 52//46
f 52//46 56//45 57//47 51//48
f 51//48 57//47 58//38 50//37
f 56//45 62//21 63//22 57//47
f 58//38 64//19 65//20 59//39
f 60//41 66//23 61//24 55//43
f 55//43 61//24 62//21 56//45
f 57//47 63//22 64//19 58//38
f 59//39 65//20 66//23 60//41
f 52//46 70//15 71//16 53//44
f 50//37 68//13 69//14 51//48
f 53//44 71//16 72//17 54//42
f 51//48 69//14 70//15 52//46
f 49//40 67//18 68//13 50//37
f 54//42 72//17 67//18 49//40
f 74//49 82//50 83//51 73//52
f 73//52 83//51 84//53 78//54
f 78//54 84//53 79//55 77//56
f 77//56 79//55 80//57 76//58
f 76//58 80//57 81//59 75//60
f 75//60 81//59 82//50 74//49
f 80//57 86//24 87//23 81//59
f 82//50 88//20 89//15 83//51
f 84//53 90//14 85//13 79//55
f 79//55 85//13 86//24 80//57
f 81//59 87//23 88//20 82//50
f 83//51 89//15 90//14 84//53
f 76//58 94//16 95//19 77//56
f 74//49 92//18 93//17 75//60
f 77//56 95//19 96//22 78//54
f 75//60 93//17 94//16 76//58
f 73//52 91//21 92//18 74//49
f 78//54 96//22 91//21 73//52
f 66//23 65//20 88//20 87//23
f 61//24 66//23 87//23 86//24
f 72//17 71//16 94//16 93//17
f 67//18 72//17 93//17 92//18
f 71//16 70//15 95//19 94//16
f 62//21 61//24 86//24 85//13
f 65//20 64//19 89//15 88//20
f 68//13 67//18 92//18 91//21
f 42//22 41//19 64//19 63//22
f 43//13 48//14 69//14 68//13
f 37//21 42//22 63//22 62//21
f 48//14 47//15 70//15 69//14
f 41//19 16//15 89//15 64//19
f 20//21 43//13 68//13 91//21
f 16//15 15//14 90//14 89//15
f 21//22 20//21 91//21 96//22
f 15//14 14//13 85//13 90//14
f 22//19 21//22 96//22 95//19
f 14//13 37//21 62//21 85//13
f 47//15 22//19 95//19 70//15
