# Blender v2.80 (sub 75) OBJ File: 'untitled.blend'
# www.blender.org
mtllib intersection_sixway.mtl
o Vert.005_Vert.006
v -4.000000 12.199997 18.000008
v -6.000000 12.199998 18.000008
v -6.499999 12.199999 17.000004
v -6.000000 12.199997 16.000004
v -4.000000 12.199997 16.000004
v -3.500000 12.199999 17.000004
v -3.900000 11.999996 15.800003
v -6.099998 11.999996 15.800003
v -6.699999 11.999999 17.000004
v -6.099998 11.999999 18.200001
v -3.900000 11.999999 18.200001
v -3.300000 11.999999 17.000004
v -4.000000 15.799997 18.000008
v -6.000000 15.799998 18.000008
v -6.499999 15.799999 17.000004
v -6.000000 15.799997 16.000004
v -4.000000 15.799997 16.000004
v -3.500000 15.799999 17.000004
v -3.900000 15.999996 15.800003
v -6.099998 15.999996 15.800003
v -6.699999 15.999999 17.000004
v -6.099998 15.999999 18.200001
v -3.900000 15.999999 18.200001
v -3.300000 15.999999 17.000004
v -4.000000 12.999995 14.000002
v -6.000000 12.999995 14.000002
v -6.499999 13.999999 14.000004
v -6.000000 15.000000 14.000002
v -4.000000 15.000000 14.000002
v -3.500000 13.999999 14.000004
v -3.900000 15.200001 14.000002
v -6.099998 15.200001 14.000002
v -6.699999 13.999999 14.000004
v -6.099998 12.800002 14.000004
v -3.900000 12.800002 14.000004
v -3.300000 13.999999 14.000004
v -4.000000 12.999995 20.000002
v -6.000000 12.999995 20.000002
v -6.499999 13.999999 20.000004
v -6.000000 15.000000 20.000002
v -4.000000 15.000000 20.000002
v -3.500000 13.999999 20.000004
v -3.900000 15.200001 20.000002
v -6.099998 15.200001 20.000002
v -6.699999 13.999999 20.000004
v -6.099998 12.800002 20.000004
v -3.900000 12.800002 20.000004
v -3.300000 13.999999 20.000004
v -2.000000 12.999995 16.000002
v -2.000000 12.999995 18.000002
v -1.999998 13.999999 18.500000
v -2.000000 15.000000 18.000002
v -2.000000 15.000000 16.000002
v -1.999998 13.999999 15.500002
v -2.000000 15.200001 15.900002
v -2.000000 15.200001 18.100000
v -1.999998 13.999999 18.700001
v -1.999998 12.800002 18.100000
v -1.999998 12.800002 15.900002
v -1.999998 13.999999 15.300003
v -8.000000 12.999995 16.000002
v -8.000000 12.999995 18.000002
v -7.999998 13.999999 18.500000
v -8.000000 15.000000 18.000002
v -8.000000 15.000000 16.000002
v -7.999998 13.999999 15.500002
v -8.000000 15.200001 15.900002
v -8.000000 15.200001 18.100000
v -7.999998 13.999999 18.700001
v -7.999998 12.800002 18.100000
v -7.999998 12.800002 15.900002
v -7.999998 13.999999 15.300003
v -4.208001 15.600000 14.846809
v -5.792000 15.600000 14.846809
v -4.208001 15.600000 19.166811
v -5.792000 15.600000 19.166811
v -2.976874 15.600000 16.214811
v -2.976874 15.600000 17.798811
v -7.296874 15.600000 16.214811
v -7.296874 15.600000 17.798811
v -4.208001 12.400000 14.929384
v -5.792000 12.400000 14.929384
v -4.208001 12.400000 19.249399
v -5.792000 12.400000 19.249399
v -2.976874 12.400000 16.297386
v -2.976874 12.400000 17.881386
v -7.296874 12.400000 16.297386
v -7.296874 12.400000 17.881386
v -4.208001 15.400001 14.846809
v -5.792000 15.400001 14.846809
v -4.208001 15.400001 19.166811
v -5.792000 15.400001 19.166811
v -2.976874 15.400001 16.214811
v -2.976874 15.400001 17.798811
v -7.296874 15.400001 16.214811
v -7.296874 15.400001 17.798811
v -4.208001 12.599999 14.929384
v -5.792000 12.599999 14.929384
v -4.208001 12.599999 19.249386
v -5.792000 12.599999 19.249386
v -2.976874 12.599999 16.297386
v -2.976874 12.599999 17.881386
v -7.296874 12.599999 16.297386
v -7.296874 12.599999 17.881386
v -4.023256 11.999997 15.976748
v -5.976743 11.999997 15.976748
v -3.511628 11.999999 17.000004
v -4.023256 11.999999 18.023260
v -5.976743 11.999999 18.023260
v -6.488371 11.999999 17.000004
v -3.481861 15.999999 17.000004
v -4.003721 15.999997 18.043724
v -5.996278 15.999998 18.043724
v -6.518138 15.999999 17.000004
v -5.996278 15.999996 15.956284
v -4.003721 15.999996 15.956284
vn -0.2480 -0.8567 0.4523
vn 0.2480 -0.8567 0.4523
vn -0.1998 -0.9460 -0.2550
vn 0.2559 -0.9265 -0.2756
vn -0.5900 -0.8073 0.0000
vn 0.4497 -0.8931 -0.0136
vn -0.2480 -0.8567 -0.4523
vn 0.2220 -0.9455 0.2381
vn 0.2480 -0.8567 -0.4523
vn -0.1744 -0.9594 0.2217
vn 0.5900 -0.8073 0.0000
vn -0.3149 -0.9490 -0.0140
vn -0.3133 -0.6857 0.6570
vn 0.6656 -0.6825 -0.3018
vn 0.5223 0.0000 -0.8527
vn -0.8527 0.0000 0.5223
vn 0.6632 0.6846 -0.3025
vn -0.3269 0.6883 0.6475
vn -0.8527 0.0000 -0.5223
vn 0.5223 0.0000 0.8527
vn 0.6660 -0.6822 0.3017
vn -0.3113 -0.6852 -0.6584
vn -0.3003 0.6825 -0.6663
vn 0.6685 0.6802 0.3007
vn 0.3080 0.6838 -0.6615
vn 0.8527 0.0000 -0.5223
vn -0.5223 0.0000 0.8527
vn -0.6463 0.6862 0.3337
vn 0.3208 -0.6862 -0.6528
vn -0.6416 -0.6894 0.3361
vn 0.8527 0.0000 0.5223
vn 0.3392 0.6886 0.6408
vn -0.6362 0.6934 -0.3381
vn -0.5223 0.0000 -0.8527
vn 0.3232 -0.6866 0.6512
vn -0.6408 -0.6900 -0.3364
vn -0.4701 0.0000 0.8826
vn -0.2550 0.5436 0.7996
vn -0.8047 0.5338 0.2597
vn -0.8826 0.0000 0.4701
vn -0.2601 -0.5309 0.8065
vn -0.8092 -0.5280 0.2576
vn -0.2500 -0.5561 -0.7926
vn -0.7996 -0.5406 -0.2616
vn -0.8826 0.0000 -0.4701
vn -0.4701 0.0000 -0.8826
vn -0.8039 0.5348 -0.2600
vn -0.2543 0.5455 -0.7986
vn 0.2518 0.5542 -0.7933
vn 0.7893 0.5616 -0.2480
vn 0.8826 0.0000 -0.4701
vn 0.4701 0.0000 -0.8826
vn 0.7865 -0.5651 -0.2491
vn 0.2481 -0.5635 -0.7879
vn 0.2525 0.5526 0.7942
vn 0.4701 0.0000 0.8826
vn 0.8826 0.0000 0.4701
vn 0.7898 0.5611 0.2478
vn 0.2569 -0.5416 0.8004
vn 0.7927 -0.5576 0.2464
vn 0.4416 0.8733 -0.2055
vn 0.4402 0.8739 0.2061
vn 0.1438 0.9165 0.3733
vn -0.1403 0.9128 0.3835
vn -0.4296 0.8820 0.1937
vn -0.4303 0.8820 -0.1923
vn -0.1398 0.9134 -0.3823
vn 0.1435 0.9169 -0.3723
vn 0.4513 -0.8691 -0.2025
vn 0.1420 -0.9185 -0.3688
vn 0.4328 -0.8766 0.2104
vn 0.1459 -0.9127 0.3817
vn -0.1436 -0.9081 0.3932
vn -0.4267 -0.8812 0.2033
vn -0.4351 -0.8812 -0.1846
vn -0.1372 -0.9157 -0.3776
vn 0.1463 0.9227 0.3565
vn -0.1490 0.9267 0.3450
vn 0.4049 0.8972 0.1759
vn -0.4022 0.8976 0.1804
vn -0.3969 0.8965 -0.1965
vn -0.1565 0.9173 -0.3662
vn 0.1566 0.9112 -0.3810
vn 0.4060 0.8912 -0.2022
vn -0.3984 -0.8976 -0.1884
vn -0.3988 -0.8977 0.1872
vn -0.1527 -0.9225 -0.3544
vn -0.1521 -0.9232 0.3528
vn 0.1506 -0.9185 0.3657
vn 0.4043 -0.8953 0.1870
vn 0.4044 -0.8948 -0.1890
vn 0.1514 -0.9176 -0.3675
vn -0.1874 0.9528 -0.2386
vn 0.2394 0.9362 -0.2571
vn -0.1854 0.9539 0.2361
vn 0.2368 0.9377 0.2543
vn -0.3139 0.9494 -0.0010
vn 0.4487 0.8936 -0.0010
vn -0.4733 0.6217 0.6241
vn 0.4394 0.6486 0.6214
vn -0.8062 0.5915 0.0115
vn -0.4566 0.6528 -0.6044
vn 0.4263 0.6749 -0.6022
vn 0.7480 0.6635 0.0121
vn 0.4544 -0.6103 0.6488
vn -0.4864 -0.5843 0.6496
vn 0.7928 -0.6094 0.0009
vn 0.4535 -0.6124 -0.6475
vn -0.4852 -0.5868 -0.6482
vn -0.8460 -0.5332 0.0009
vn -0.5343 0.8452 0.0000
vn -0.2298 0.8840 -0.4070
vn 0.2298 0.8840 -0.4070
vn 0.5343 0.8452 0.0000
vn 0.2298 0.8840 0.4070
vn -0.2298 0.8840 0.4070
usemtl None
s 1
f 105//1 106//2 8//3 7//4
f 107//5 105//1 7//4 12//6
f 108//7 107//5 12//6 11//8
f 109//9 108//7 11//8 10//10
f 110//11 109//9 10//10 9//12
f 106//2 110//11 9//12 8//3
f 41//13 52//14 51//15 42//16
f 42//16 51//15 50//17 37//18
f 30//19 54//20 53//21 29//22
f 25//23 49//24 54//20 30//19
f 26//25 27//26 66//27 61//28
f 27//26 28//29 65//30 66//27
f 39//31 38//32 62//33 63//34
f 40//35 39//31 63//34 64//36
f 45//37 44//38 68//39 69//40
f 46//41 45//37 69//40 70//42
f 34//43 71//44 72//45 33//46
f 33//46 72//45 67//47 32//48
f 31//49 55//50 60//51 36//52
f 36//52 60//51 59//53 35//54
f 43//55 48//56 57//57 56//58
f 48//56 47//59 58//60 57//57
f 56//58 55//50 77//61 78//62
f 43//55 56//58 78//62 75//63
f 44//38 43//55 75//63 76//64
f 68//39 44//38 76//64 80//65
f 68//39 80//65 79//66 67//47
f 67//47 79//66 74//67 32//48
f 32//48 74//67 73//68 31//49
f 31//49 73//68 77//61 55//50
f 35//54 59//53 85//69 81//70
f 58//60 86//71 85//69 59//53
f 47//59 83//72 86//71 58//60
f 46//41 84//73 83//72 47//59
f 70//42 88//74 84//73 46//41
f 70//42 71//44 87//75 88//74
f 71//44 34//43 82//76 87//75
f 34//43 35//54 81//70 82//76
f 25//23 26//25 98//77 97//78
f 26//25 61//28 103//79 98//77
f 49//24 25//23 97//78 101//80
f 50//17 49//24 101//80 102//81
f 50//17 102//81 99//82 37//18
f 37//18 99//82 100//83 38//32
f 38//32 100//83 104//84 62//33
f 62//33 104//84 103//79 61//28
f 52//14 94//85 93//86 53//21
f 41//13 91//87 94//85 52//14
f 29//22 53//21 93//86 89//88
f 28//29 29//22 89//88 90//89
f 65//30 28//29 90//89 95//90
f 65//30 95//90 96//91 64//36
f 64//36 96//91 92//92 40//35
f 40//35 92//92 91//87 41//13
f 8//3 82//76 81//70 7//4
f 10//10 11//8 83//72 84//73
f 20//93 19//94 73//68 74//67
f 22//95 76//64 75//63 23//96
f 21//97 80//65 76//64 22//95
f 21//97 20//93 74//67 79//66
f 79//66 80//65 21//97
f 23//96 75//63 78//62 24//98
f 19//94 24//98 77//61 73//68
f 77//61 24//98 78//62
f 9//12 10//10 84//73 88//74
f 9//12 87//75 82//76 8//3
f 87//75 9//12 88//74
f 7//4 81//70 85//69 12//6
f 11//8 12//6 86//71 83//72
f 85//69 86//71 12//6
f 5//99 97//78 98//77 4//100
f 6//101 101//80 97//78 5//99
f 6//101 1//102 99//82 102//81
f 101//80 6//101 102//81
f 1//102 2//103 100//83 99//82
f 2//103 3//104 104//84 100//83
f 4//100 98//77 103//79 3//104
f 103//79 104//84 3//104
f 16//105 90//89 89//88 17//106
f 15//107 95//90 90//89 16//105
f 15//107 14//108 92//92 96//91
f 96//91 95//90 15//107
f 14//108 13//109 91//87 92//92
f 13//109 18//110 94//85 91//87
f 17//106 89//88 93//86 18//110
f 93//86 94//85 18//110
f 64//36 68//39 67//47 65//30
f 65//30 67//47 72//45 66//27
f 66//27 72//45 71//44 61//28
f 61//28 71//44 70//42 62//33
f 62//33 70//42 69//40 63//34
f 63//34 69//40 68//39 64//36
f 39//31 40//35 44//38 45//37
f 40//35 41//13 43//55 44//38
f 41//13 42//16 48//56 43//55
f 42//16 37//18 47//59 48//56
f 38//32 39//31 45//37 46//41
f 37//18 38//32 46//41 47//59
f 52//14 53//21 55//50 56//58
f 51//15 52//14 56//58 57//57
f 50//17 51//15 57//57 58//60
f 49//24 50//17 58//60 59//53
f 54//20 49//24 59//53 60//51
f 53//21 54//20 60//51 55//50
f 29//22 31//49 36//52 30//19
f 28//29 32//48 31//49 29//22
f 27//26 33//46 32//48 28//29
f 26//25 34//43 33//46 27//26
f 25//23 35//54 34//43 26//25
f 30//19 36//52 35//54 25//23
f 111//111 112//112 23//96 24//98
f 112//112 113//113 22//95 23//96
f 113//113 114//114 21//97 22//95
f 114//114 115//115 20//93 21//97
f 115//115 116//116 19//94 20//93
f 116//116 111//111 24//98 19//94
f 4//100 3//104 110//11 106//2
f 3//104 2//103 109//9 110//11
f 2//103 1//102 108//7 109//9
f 1//102 6//101 107//5 108//7
f 6//101 5//99 105//1 107//5
f 5//99 4//100 106//2 105//1
f 17//106 18//110 111//111 116//116
f 16//105 17//106 116//116 115//115
f 15//107 16//105 115//115 114//114
f 14//108 15//107 114//114 113//113
f 13//109 14//108 113//113 112//112
f 18//110 13//109 112//112 111//111
