# Blender v2.80 (sub 75) OBJ File: 'untitled.blend'
# www.blender.org
mtllib turn_vertical_short.mtl
o Vert.003_Vert.004
v 0.000000 0.000000 -3.000000
v 2.000000 0.000000 -3.000000
v 2.500000 1.000000 -3.000000
v 2.000000 2.000000 -3.000000
v 0.000000 2.000000 -3.000000
v -0.500000 1.000000 -3.000000
v -0.100000 2.200000 -3.000000
v 2.100000 2.200000 -3.000000
v 2.700000 1.000000 -3.000000
v 2.100000 -0.200000 -3.000000
v -0.100000 -0.200000 -3.000000
v -0.700000 1.000000 -3.000000
v 0.000000 0.074963 -3.569402
v 2.000000 0.074963 -3.569402
v 2.500000 1.040889 -3.310583
v 2.000000 2.006815 -3.051764
v 0.000000 2.006815 -3.051764
v -0.500000 1.040889 -3.310583
v -0.100000 2.200000 -3.000000
v 2.100000 2.200000 -3.000000
v 2.700000 1.040889 -3.310583
v 2.100000 -0.118222 -3.621166
v -0.100000 -0.118222 -3.621166
v -0.700000 1.040889 -3.310583
v 0.000000 0.294744 -4.100000
v 2.000000 0.294744 -4.100000
v 2.500000 1.160769 -3.600000
v 2.000000 2.026795 -3.100000
v 0.000000 2.026795 -3.100000
v -0.500000 1.160769 -3.600000
v -0.100000 2.200000 -3.000000
v 2.100000 2.200000 -3.000000
v 2.700000 1.160769 -3.600000
v 2.100000 0.121539 -4.200000
v -0.100000 0.121539 -4.200000
v -0.700000 1.160769 -3.600000
v 0.000000 0.644365 -4.555634
v 2.000000 0.644365 -4.555634
v 2.500000 1.351472 -3.848528
v 2.000000 2.058578 -3.141421
v 0.000000 2.058578 -3.141421
v -0.500000 1.351472 -3.848528
v -0.100000 2.200000 -3.000000
v 2.100000 2.200000 -3.000000
v 2.700000 1.351472 -3.848528
v 2.100000 0.502944 -4.697056
v -0.100000 0.502944 -4.697056
v -0.700000 1.351472 -3.848528
v 0.000000 1.100000 -4.905255
v 2.000000 1.100000 -4.905255
v 2.500000 1.600000 -4.039230
v 2.000000 2.100000 -3.173205
v 0.000000 2.100000 -3.173205
v -0.500000 1.600000 -4.039230
v -0.100000 2.200000 -3.000000
v 2.100000 2.200000 -3.000000
v 2.700000 1.600000 -4.039230
v 2.100000 1.000000 -5.078461
v -0.100000 1.000000 -5.078461
v -0.700000 1.600000 -4.039230
v 0.000000 1.630598 -5.125036
v 2.000000 1.630598 -5.125036
v 2.500000 1.889417 -4.159111
v 2.000000 2.148236 -3.193185
v 0.000000 2.148236 -3.193185
v -0.500000 1.889417 -4.159111
v -0.100000 2.200000 -3.000000
v 2.100000 2.200000 -3.000000
v 2.700000 1.889417 -4.159111
v 2.100000 1.578834 -5.318222
v -0.100000 1.578834 -5.318222
v -0.700000 1.889417 -4.159111
v 0.000000 2.200000 -5.199999
v 2.000000 2.200000 -5.199999
v 2.500000 2.200000 -4.200000
v 2.000000 2.200000 -3.200000
v 0.000000 2.200000 -3.200000
v -0.500000 2.200000 -4.200000
v -0.100000 2.200000 -3.000000
v 2.100000 2.200000 -3.000000
v 2.700000 2.200000 -4.200000
v 2.100000 2.200000 -5.400001
v -0.100000 2.200000 -5.400001
v -0.700000 2.200000 -4.200000
vn 0.5661 0.0211 0.8240
vn 0.3131 -0.4801 0.8195
vn -0.6136 0.3068 0.7276
vn -0.7864 -0.0293 0.6169
vn -0.4190 -0.7123 0.5630
vn 0.2491 0.4234 0.8710
vn 0.4190 -0.7123 0.5630
vn -0.2491 0.4234 0.8710
vn 0.7864 -0.0293 0.6169
vn -0.5661 0.0211 0.8240
vn 0.5308 0.2654 0.8049
vn -0.3131 -0.4801 0.8195
vn -0.5071 0.8325 0.2231
vn 0.5071 0.8325 0.2231
vn 0.9993 0.0360 0.0096
vn -0.9993 0.0360 0.0096
vn 0.5462 -0.8091 -0.2168
vn -0.5462 -0.8091 -0.2168
vn 0.5462 -0.7254 -0.4188
vn -0.5462 -0.7254 -0.4188
vn 0.5462 -0.5923 -0.5923
vn -0.5462 -0.5923 -0.5923
vn 0.5462 -0.4188 -0.7254
vn -0.5462 -0.4188 -0.7254
vn 0.5462 -0.2168 -0.8091
vn -0.5462 -0.2168 -0.8091
vn 0.3131 0.8195 -0.4801
vn -0.3131 0.8195 -0.4801
vn 0.9993 0.0322 0.0186
vn 0.5071 0.7464 0.4310
vn -0.5071 0.7464 0.4309
vn -0.9993 0.0322 0.0186
vn -0.5071 0.6095 0.6095
vn 0.5071 0.6095 0.6095
vn -0.5071 0.4309 0.7464
vn 0.5071 0.4309 0.7464
vn -0.5071 0.2231 0.8325
vn 0.5071 0.2231 0.8325
vn -0.2491 0.8710 0.4234
vn 0.2491 0.8710 0.4234
vn 0.9993 0.0096 0.0360
vn 0.9993 0.0186 0.0322
vn 0.9993 0.0263 0.0263
vn 0.5661 0.8240 0.0211
vn -0.9993 0.0263 0.0263
vn -0.9993 0.0186 0.0322
vn -0.9993 0.0096 0.0360
vn -0.5661 0.8240 0.0211
vn 0.9993 -0.0096 -0.0360
vn 0.7864 0.6169 -0.0293
vn 0.5308 0.8049 0.2654
vn 0.8944 0.1157 0.4320
vn 0.9993 -0.0186 -0.0322
vn 0.8944 0.2236 0.3873
vn 0.9993 -0.0263 -0.0263
vn 0.8944 0.3162 0.3162
vn 0.9993 -0.0322 -0.0186
vn 0.8944 0.3873 0.2236
vn 0.9993 -0.0360 -0.0096
vn 0.8944 0.4320 0.1157
vn 0.5071 -0.8325 -0.2231
vn 0.5071 -0.7464 -0.4309
vn 0.5071 -0.6095 -0.6095
vn 0.5071 -0.4310 -0.7464
vn 0.5071 -0.2231 -0.8325
vn 0.4190 0.5630 -0.7123
vn -0.8944 0.4293 0.1256
vn -0.9993 -0.0360 -0.0096
vn -0.8944 0.3873 0.2236
vn -0.9993 -0.0322 -0.0186
vn -0.8944 0.3162 0.3162
vn -0.9993 -0.0263 -0.0263
vn -0.8944 0.2236 0.3873
vn -0.9993 -0.0186 -0.0322
vn -0.8944 0.1157 0.4320
vn -0.9993 -0.0096 -0.0360
vn -0.5308 0.8049 0.2654
vn -0.7864 0.6169 -0.0293
vn -0.4190 0.5630 -0.7123
vn -0.5071 -0.2231 -0.8325
vn -0.5071 -0.4310 -0.7464
vn -0.5071 -0.6095 -0.6095
vn -0.5071 -0.7464 -0.4309
vn -0.5071 -0.8325 -0.2231
usemtl None
s 1
f 6//1 5//2 7//3 12//4
f 12//4 11//5 1//6 6//1
f 10//7 2//8 1//6 11//5
f 9//9 3//10 2//8 10//7
f 8//11 4//12 3//10 9//9
f 4//12 8//11 7//3 5//2
f 2//8 14//13 13//14 1//6
f 1//6 13//14 18//15 6//1
f 3//10 15//16 14//13 2//8
f 6//1 18//15 17//17 5//2
f 5//2 17//17 16//18 4//12
f 17//17 29//19 28//20 16//18
f 29//19 41//21 40//22 28//20
f 41//21 53//23 52//24 40//22
f 53//23 65//25 64//26 52//24
f 65//25 77//27 76//28 64//26
f 18//15 30//29 29//19 17//17
f 13//14 25//30 30//29 18//15
f 14//13 26//31 25//30 13//14
f 15//16 27//32 26//31 14//13
f 26//31 38//33 37//34 25//30
f 38//33 50//35 49//36 37//34
f 50//35 62//37 61//38 49//36
f 62//37 74//39 73//40 61//38
f 49//36 61//38 66//41 54//42
f 37//34 49//36 54//42 42//43
f 25//30 37//34 42//43 30//29
f 30//29 42//43 41//21 29//19
f 42//43 54//42 53//23 41//21
f 54//42 66//41 65//25 53//23
f 66//41 78//44 77//27 65//25
f 61//38 73//40 78//44 66//41
f 4//12 16//18 15//16 3//10
f 16//18 28//20 27//32 15//16
f 28//20 40//22 39//45 27//32
f 27//32 39//45 38//33 26//31
f 40//22 52//24 51//46 39//45
f 39//45 51//46 50//35 38//33
f 51//46 63//47 62//37 50//35
f 52//24 64//26 63//47 51//46
f 64//26 76//28 75//48 63//47
f 63//47 75//48 74//39 62//37
f 69//49 81//50 80//51 68//52
f 57//53 69//49 68//52 56//54
f 45//55 57//53 56//54 44//56
f 33//57 45//55 44//56 32//58
f 21//59 33//57 32//58 20//60
f 9//9 21//59 20//60 8//11
f 10//7 22//61 21//59 9//9
f 22//61 34//62 33//57 21//59
f 34//62 46//63 45//55 33//57
f 46//63 58//64 57//53 45//55
f 58//64 70//65 69//49 57//53
f 70//65 82//66 81//50 69//49
f 7//3 19//67 24//68 12//4
f 19//67 31//69 36//70 24//68
f 31//69 43//71 48//72 36//70
f 43//71 55//73 60//74 48//72
f 55//73 67//75 72//76 60//74
f 67//75 79//77 84//78 72//76
f 72//76 84//78 83//79 71//80
f 60//74 72//76 71//80 59//81
f 48//72 60//74 59//81 47//82
f 36//70 48//72 47//82 35//83
f 24//68 36//70 35//83 23//84
f 12//4 24//68 23//84 11//5
f 71//80 83//79 82//66 70//65
f 59//81 71//80 70//65 58//64
f 47//82 59//81 58//64 46//63
f 35//83 47//82 46//63 34//62
f 23//84 35//83 34//62 22//61
f 11//5 23//84 22//61 10//7
f 73//40 74//39 82//66 83//79
f 74//39 75//48 81//50 82//66
f 75//48 76//28 80//51 81//50
f 76//28 77//27 79//77 80//51
f 77//27 78//44 84//78 79//77
f 78//44 73//40 83//79 84//78
l 19 20
l 31 32
l 43 44
l 55 56
l 67 68
