# Blender v2.80 (sub 75) OBJ File: 'untitled.blend'
# www.blender.org
mtllib turn_horizontal_short.mtl
o Vert.001
v 0.000000 0.000000 0.000000
v 2.000000 0.000000 0.000000
v 2.500000 1.000000 0.000000
v 2.000000 2.000000 0.000000
v 0.000000 2.000000 0.000000
v -0.500000 1.000000 0.000000
v -0.100000 2.200000 0.000000
v 2.100000 2.200000 0.000000
v 2.700000 1.000000 0.000000
v 2.100000 -0.200000 0.000000
v -0.100000 -0.200000 0.000000
v -0.700000 1.000000 0.000000
v -0.034074 0.000000 0.258819
v 1.897778 0.000000 0.776457
v 2.380740 1.000000 0.905867
v 1.897778 2.000000 0.776457
v -0.034074 2.000000 0.258819
v -0.517037 1.000000 0.129410
v -0.130667 2.200000 0.232937
v 1.994370 2.200000 0.802339
v 2.573925 1.000000 0.957630
v 1.994370 -0.200000 0.802339
v -0.130667 -0.200000 0.232937
v -0.710222 1.000000 0.077646
v -0.133975 0.000000 0.500000
v 1.598076 0.000000 1.500000
v 2.031089 1.000000 1.750000
v 1.598076 2.000000 1.500000
v -0.133975 2.000000 0.500000
v -0.566987 1.000000 0.250000
v -0.220577 2.200000 0.450000
v 1.684679 2.200000 1.550000
v 2.204294 1.000000 1.850000
v 1.684679 -0.200000 1.550000
v -0.220577 -0.200000 0.450000
v -0.740192 1.000000 0.150000
v -0.292893 0.000000 0.707107
v 1.121320 0.000000 2.121320
v 1.474874 1.000000 2.474874
v 1.121320 2.000000 2.121320
v -0.292893 2.000000 0.707107
v -0.646447 1.000000 0.353553
v -0.363604 2.200000 0.636396
v 1.192031 2.200000 2.192031
v 1.616295 1.000000 2.616295
v 1.192031 -0.200000 2.192031
v -0.363604 -0.200000 0.636396
v -0.787868 1.000000 0.212132
v -0.500000 0.000000 0.866025
v 0.500000 0.000000 2.598076
v 0.750000 1.000000 3.031089
v 0.500000 2.000000 2.598076
v -0.500000 2.000000 0.866025
v -0.750000 1.000000 0.433013
v -0.550000 2.200000 0.779423
v 0.549999 2.200000 2.684679
v 0.850000 1.000000 3.204294
v 0.549999 -0.200000 2.684679
v -0.550000 -0.200000 0.779423
v -0.850000 1.000000 0.259808
v -0.741181 0.000000 0.965926
v -0.223543 0.000000 2.897777
v -0.094134 1.000000 3.380740
v -0.223543 2.000000 2.897777
v -0.741181 2.000000 0.965926
v -0.870590 1.000000 0.482963
v -0.767063 2.200000 0.869333
v -0.197661 2.200000 2.994370
v -0.042370 1.000000 3.573925
v -0.197661 -0.200000 2.994370
v -0.767063 -0.200000 0.869333
v -0.922354 1.000000 0.289778
v -1.000000 0.000000 1.000000
v -1.000000 0.000000 3.000000
v -1.000000 1.000000 3.500000
v -1.000000 2.000000 3.000000
v -1.000000 2.000000 1.000000
v -1.000000 1.000000 0.500000
v -1.000000 2.200000 0.900000
v -1.000000 2.200000 3.099999
v -1.000000 1.000000 3.700000
v -1.000000 -0.200000 3.099999
v -1.000000 -0.200000 0.900000
v -1.000000 1.000000 0.300000
vn 0.6174 0.0000 -0.7866
vn -0.7445 0.0000 -0.6676
vn -0.3826 0.6760 -0.6298
vn 0.2741 -0.4843 -0.8308
vn 0.2741 0.4843 -0.8308
vn -0.3826 -0.6760 -0.6298
vn 0.4537 -0.6782 -0.5781
vn -0.2812 0.4204 -0.8626
vn 0.8221 0.0000 -0.5693
vn -0.5192 0.0000 -0.8546
vn 0.4537 0.6782 -0.5781
vn -0.2812 -0.4204 -0.8626
vn -0.4758 0.8702 -0.1275
vn 0.5370 0.8312 0.1439
vn -0.4266 0.8702 -0.2463
vn 0.4815 0.8312 0.2780
vn -0.3483 0.8702 -0.3483
vn 0.3931 0.8312 0.3931
vn -0.2463 0.8702 -0.4266
vn 0.2780 0.8312 0.4815
vn -0.1275 0.8702 -0.4758
vn 0.1439 0.8312 0.5370
vn -0.6298 0.6760 -0.3826
vn -0.5781 0.6782 0.4537
vn -0.5370 -0.8312 -0.1439
vn 0.4758 -0.8702 0.1275
vn -0.4815 -0.8312 -0.2780
vn 0.4266 -0.8702 0.2463
vn -0.3931 -0.8312 -0.3931
vn 0.3483 -0.8702 0.3483
vn -0.2780 -0.8312 -0.4815
vn 0.2463 -0.8702 0.4266
vn -0.1439 -0.8312 -0.5370
vn 0.1275 -0.8702 0.4758
vn -0.8626 -0.4204 -0.2812
vn -0.8308 -0.4843 0.2741
vn 0.4758 0.8702 0.1275
vn -0.5370 0.8312 -0.1439
vn -0.9659 0.0000 -0.2588
vn 0.9659 0.0000 0.2588
vn 0.8660 0.0000 0.5000
vn 0.4266 0.8702 0.2463
vn 0.7071 0.0000 0.7071
vn 0.3483 0.8702 0.3483
vn 0.5000 0.0000 0.8660
vn 0.2463 0.8702 0.4266
vn 0.2588 0.0000 0.9659
vn 0.1275 0.8702 0.4758
vn -0.7866 0.0000 0.6174
vn -0.8308 0.4843 0.2741
vn -0.4815 0.8312 -0.2780
vn -0.8660 0.0000 -0.5000
vn -0.3931 0.8312 -0.3931
vn -0.7071 0.0000 -0.7071
vn -0.2780 0.8312 -0.4815
vn -0.5000 0.0000 -0.8660
vn -0.1439 0.8312 -0.5370
vn -0.2588 0.0000 -0.9659
vn -0.8546 0.0000 -0.5192
vn -0.8626 0.4204 -0.2812
vn -0.5693 0.0000 0.8221
vn 0.5370 -0.8312 0.1439
vn 0.4815 -0.8312 0.2780
vn 0.3931 -0.8312 0.3931
vn 0.2780 -0.8312 0.4815
vn 0.1439 -0.8312 0.5370
vn -0.5781 -0.6782 0.4537
vn -0.6676 0.0000 -0.7445
vn -0.4758 -0.8702 -0.1275
vn -0.4266 -0.8702 -0.2463
vn -0.3483 -0.8702 -0.3483
vn -0.2463 -0.8702 -0.4266
vn -0.1275 -0.8702 -0.4758
vn -0.6298 -0.6760 -0.3826
usemtl None
s 1
f 6//1 12//2 7//3 5//4
f 12//2 6//1 1//5 11//6
f 10//7 11//6 1//5 2//8
f 9//9 10//7 2//8 3//10
f 8//11 9//9 3//10 4//12
f 4//12 5//4 7//3 8//11
f 7//3 19//13 20//14 8//11
f 19//13 31//15 32//16 20//14
f 31//15 43//17 44//18 32//16
f 43//17 55//19 56//20 44//18
f 55//19 67//21 68//22 56//20
f 67//21 79//23 80//24 68//22
f 4//12 16//25 17//26 5//4
f 16//25 28//27 29//28 17//26
f 28//27 40//29 41//30 29//28
f 40//29 52//31 53//32 41//30
f 52//31 64//33 65//34 53//32
f 64//33 76//35 77//36 65//34
f 1//5 13//37 14//38 2//8
f 2//8 14//38 15//39 3//10
f 3//10 15//39 16//25 4//12
f 6//1 18//40 13//37 1//5
f 5//4 17//26 18//40 6//1
f 18//40 30//41 25//42 13//37
f 30//41 42//43 37//44 25//42
f 42//43 54//45 49//46 37//44
f 54//45 66//47 61//48 49//46
f 66//47 78//49 73//50 61//48
f 17//26 29//28 30//41 18//40
f 29//28 41//30 42//43 30//41
f 41//30 53//32 54//45 42//43
f 53//32 65//34 66//47 54//45
f 65//34 77//36 78//49 66//47
f 14//38 26//51 27//52 15//39
f 15//39 27//52 28//27 16//25
f 26//51 38//53 39//54 27//52
f 27//52 39//54 40//29 28//27
f 38//53 50//55 51//56 39//54
f 39//54 51//56 52//31 40//29
f 50//55 62//57 63//58 51//56
f 51//56 63//58 64//33 52//31
f 63//58 75//59 76//35 64//33
f 62//57 74//60 75//59 63//58
f 13//37 25//42 26//51 14//38
f 25//42 37//44 38//53 26//51
f 37//44 49//46 50//55 38//53
f 49//46 61//48 62//57 50//55
f 61//48 73//50 74//60 62//57
f 8//11 20//14 21//40 9//9
f 20//14 32//16 33//41 21//40
f 32//16 44//18 45//43 33//41
f 44//18 56//20 57//45 45//43
f 56//20 68//22 69//47 57//45
f 68//22 80//24 81//61 69//47
f 9//9 21//40 22//62 10//7
f 21//40 33//41 34//63 22//62
f 33//41 45//43 46//64 34//63
f 45//43 57//45 58//65 46//64
f 57//45 69//47 70//66 58//65
f 69//47 81//61 82//67 70//66
f 12//2 24//39 19//13 7//3
f 24//39 36//52 31//15 19//13
f 36//52 48//54 43//17 31//15
f 48//54 60//56 55//19 43//17
f 60//56 72//58 67//21 55//19
f 72//58 84//68 79//23 67//21
f 11//6 23//69 24//39 12//2
f 23//69 35//70 36//52 24//39
f 35//70 47//71 48//54 36//52
f 47//71 59//72 60//56 48//54
f 59//72 71//73 72//58 60//56
f 71//73 83//74 84//68 72//58
f 10//7 22//62 23//69 11//6
f 22//62 34//63 35//70 23//69
f 34//63 46//64 47//71 35//70
f 46//64 58//65 59//72 47//71
f 58//65 70//66 71//73 59//72
f 70//66 82//67 83//74 71//73
f 74//60 73//50 83//74 82//67
f 73//50 78//49 84//68 83//74
f 78//49 77//36 79//23 84//68
f 77//36 76//35 80//24 79//23
f 76//35 75//59 81//61 80//24
f 75//59 74//60 82//67 81//61
